<mxfile host="app.diagrams.net" agent="Mozilla/5.0 (Windows NT 10.0; Win64; x64) AppleWebKit/537.36 (KHTML, like Gecko) Chrome/131.0.0.0 Safari/537.36" version="24.8.8">
  <diagram name="หน้า-1" id="Crw5nlHtfkRJCjAJrMV7">
    <mxGraphModel dx="1050" dy="530" grid="1" gridSize="10" guides="1" tooltips="1" connect="1" arrows="1" fold="1" page="1" pageScale="1" pageWidth="827" pageHeight="1169" math="0" shadow="0">
      <root>
        <mxCell id="0" />
        <mxCell id="1" parent="0" />
        <mxCell id="Tc_i9HYEaelAic-6y4b6-3" value="" style="edgeStyle=orthogonalEdgeStyle;rounded=0;orthogonalLoop=1;jettySize=auto;html=1;" edge="1" parent="1" source="Tc_i9HYEaelAic-6y4b6-1" target="Tc_i9HYEaelAic-6y4b6-2">
          <mxGeometry relative="1" as="geometry" />
        </mxCell>
        <mxCell id="Tc_i9HYEaelAic-6y4b6-1" value="start" style="ellipse;whiteSpace=wrap;html=1;" vertex="1" parent="1">
          <mxGeometry x="350" y="10" width="120" height="80" as="geometry" />
        </mxCell>
        <mxCell id="Tc_i9HYEaelAic-6y4b6-5" value="" style="edgeStyle=orthogonalEdgeStyle;rounded=0;orthogonalLoop=1;jettySize=auto;html=1;" edge="1" parent="1" source="Tc_i9HYEaelAic-6y4b6-2" target="Tc_i9HYEaelAic-6y4b6-4">
          <mxGeometry relative="1" as="geometry" />
        </mxCell>
        <mxCell id="Tc_i9HYEaelAic-6y4b6-2" value="Input ID" style="shape=parallelogram;perimeter=parallelogramPerimeter;whiteSpace=wrap;html=1;fixedSize=1;" vertex="1" parent="1">
          <mxGeometry x="350" y="180" width="120" height="60" as="geometry" />
        </mxCell>
        <mxCell id="Tc_i9HYEaelAic-6y4b6-7" value="" style="edgeStyle=orthogonalEdgeStyle;rounded=0;orthogonalLoop=1;jettySize=auto;html=1;" edge="1" parent="1" source="Tc_i9HYEaelAic-6y4b6-4" target="Tc_i9HYEaelAic-6y4b6-6">
          <mxGeometry relative="1" as="geometry" />
        </mxCell>
        <mxCell id="Tc_i9HYEaelAic-6y4b6-4" value="Input Working Hours" style="shape=parallelogram;perimeter=parallelogramPerimeter;whiteSpace=wrap;html=1;fixedSize=1;" vertex="1" parent="1">
          <mxGeometry x="340" y="320" width="140" height="60" as="geometry" />
        </mxCell>
        <mxCell id="Tc_i9HYEaelAic-6y4b6-9" value="" style="edgeStyle=orthogonalEdgeStyle;rounded=0;orthogonalLoop=1;jettySize=auto;html=1;" edge="1" parent="1" source="Tc_i9HYEaelAic-6y4b6-6" target="Tc_i9HYEaelAic-6y4b6-8">
          <mxGeometry relative="1" as="geometry" />
        </mxCell>
        <mxCell id="Tc_i9HYEaelAic-6y4b6-6" value="Input Salary" style="shape=parallelogram;perimeter=parallelogramPerimeter;whiteSpace=wrap;html=1;fixedSize=1;" vertex="1" parent="1">
          <mxGeometry x="350" y="460" width="120" height="60" as="geometry" />
        </mxCell>
        <mxCell id="Tc_i9HYEaelAic-6y4b6-11" value="" style="edgeStyle=orthogonalEdgeStyle;rounded=0;orthogonalLoop=1;jettySize=auto;html=1;" edge="1" parent="1" source="Tc_i9HYEaelAic-6y4b6-8" target="Tc_i9HYEaelAic-6y4b6-10">
          <mxGeometry relative="1" as="geometry" />
        </mxCell>
        <mxCell id="Tc_i9HYEaelAic-6y4b6-8" value="Working Hours x Salary" style="whiteSpace=wrap;html=1;" vertex="1" parent="1">
          <mxGeometry x="350" y="600" width="120" height="60" as="geometry" />
        </mxCell>
        <mxCell id="Tc_i9HYEaelAic-6y4b6-13" value="" style="edgeStyle=orthogonalEdgeStyle;rounded=0;orthogonalLoop=1;jettySize=auto;html=1;" edge="1" parent="1" source="Tc_i9HYEaelAic-6y4b6-10" target="Tc_i9HYEaelAic-6y4b6-12">
          <mxGeometry relative="1" as="geometry" />
        </mxCell>
        <mxCell id="Tc_i9HYEaelAic-6y4b6-10" value="Output ID" style="shape=parallelogram;perimeter=parallelogramPerimeter;whiteSpace=wrap;html=1;fixedSize=1;" vertex="1" parent="1">
          <mxGeometry x="350" y="740" width="120" height="60" as="geometry" />
        </mxCell>
        <mxCell id="Tc_i9HYEaelAic-6y4b6-15" value="" style="edgeStyle=orthogonalEdgeStyle;rounded=0;orthogonalLoop=1;jettySize=auto;html=1;" edge="1" parent="1" source="Tc_i9HYEaelAic-6y4b6-12" target="Tc_i9HYEaelAic-6y4b6-14">
          <mxGeometry relative="1" as="geometry" />
        </mxCell>
        <mxCell id="Tc_i9HYEaelAic-6y4b6-12" value="Output All Saraly" style="shape=parallelogram;perimeter=parallelogramPerimeter;whiteSpace=wrap;html=1;fixedSize=1;" vertex="1" parent="1">
          <mxGeometry x="350" y="880" width="120" height="60" as="geometry" />
        </mxCell>
        <mxCell id="Tc_i9HYEaelAic-6y4b6-14" value="End" style="ellipse;whiteSpace=wrap;html=1;" vertex="1" parent="1">
          <mxGeometry x="350" y="1020" width="120" height="80" as="geometry" />
        </mxCell>
      </root>
    </mxGraphModel>
  </diagram>
</mxfile>
